# xmcd
#
# Track frame offsets:
#	150
#	14241
#	23456
#	33221
#	46495
#	61685
#	73656
#	85165
#	99664
#	111547
#
# Disc length: 1671 seconds
#
# Revision: 1
# Processed by: cddbd v1.5.2PL0 Copyright (c) Steve Scherf et al.
# Submitted via: audiograbber 1.83.01
#
DISCID=7f06850a
DTITLE=Don Williams - Volume 1 (MCA)
DYEAR=1973
DGENRE=Country
TTITLE0=Come Early Morning
TTITLE1=Too Late To Turn Back Now
TTITLE2=Endless Sleep
TTITLE3=The Shelter of Your Eyes
TTITLE4=I Recall A Gypsy Woman
TTITLE5=No Use Running
TTITLE6=How Much Time Does It Take
TTITLE7=My Woman's Love
TTITLE8=Don't You Believe
TTITLE9=Amanda
EXTD=
EXTT0=
EXTT1=
EXTT2=
EXTT3=
EXTT4=
EXTT5=
EXTT6=
EXTT7=
EXTT8=
EXTT9=
PLAYORDER=
